<?xml version="1.0" standalone="no"?>
<!DOCTYPE svg PUBLIC "-//W3C//DTD SVG 20010904//EN"
 "http://www.w3.org/TR/2001/REC-SVG-20010904/DTD/svg10.dtd">
<svg version="1.0" xmlns="http://www.w3.org/2000/svg"
 width="700.000000pt" height="700.000000pt" viewBox="0 0 700.000000 700.000000"
 preserveAspectRatio="xMidYMid meet">
<metadata>
Created by potrace 1.14, written by Peter Selinger 2001-2017
</metadata>
<g transform="translate(0.000000,700.000000) scale(0.100000,-0.100000)"
fill="#000000" stroke="none">
<path d="M3207 6670 c-586 -61 -1099 -254 -1567 -590 -144 -103 -271 -214
-416 -361 -487 -499 -780 -1099 -881 -1810 -25 -176 -25 -642 0 -818 85 -596
307 -1118 667 -1571 105 -132 325 -357 453 -463 459 -381 1000 -621 1595 -708
179 -26 512 -35 696 -20 639 54 1228 286 1726 681 134 105 404 375 506 505
456 578 694 1259 694 1985 0 723 -240 1413 -690 1980 -107 135 -375 403 -510
510 -454 360 -979 583 -1565 666 -131 18 -579 27 -708 14z m618 -370 c596 -43
1072 -225 1480 -565 44 -37 80 -71 80 -76 0 -5 -105 -128 -233 -273 l-234
-265 -71 58 c-166 134 -385 253 -589 319 -510 166 -1057 123 -1361 -108 -149
-113 -222 -252 -233 -450 -18 -291 118 -482 462 -653 178 -89 364 -156 874
-317 382 -121 734 -278 925 -415 290 -207 491 -508 559 -838 44 -212 47 -541
7 -728 -64 -299 -189 -528 -400 -739 -294 -293 -690 -466 -1226 -536 -184 -24
-617 -24 -815 0 -179 21 -363 57 -505 97 -120 33 -353 123 -458 176 -190 95
-409 244 -546 369 l-63 59 247 277 247 277 77 -66 c157 -134 376 -266 576
-346 248 -99 448 -137 755 -144 359 -9 572 37 805 172 85 49 246 207 293 287
76 130 108 277 99 463 -10 212 -61 338 -187 466 -88 89 -158 138 -295 206
-140 70 -295 130 -540 208 -471 149 -681 228 -930 352 -519 259 -791 576 -872
1018 -23 125 -23 399 0 517 82 413 350 754 756 961 383 197 810 273 1316 237z"/>
</g>
</svg>
